<svg width="100" height="22" viewBox="0 0 100 22" fill="none" xmlns="http://www.w3.org/2000/svg">
<g clip-path="url(#clip0_3249_17863)">
<path d="M35.3594 3.28369C34.6414 3.28369 34.0786 3.81516 34.0786 4.56318C34.0786 5.31121 34.6414 5.84268 35.3594 5.84268C36.0774 5.84268 36.6402 5.31121 36.6402 4.56318C36.6402 3.81516 36.0774 3.28369 35.3594 3.28369Z" fill="white"/>
<path d="M30.6441 6.41332C30.6441 5.72436 30.9158 5.4291 31.595 5.4291H33.0698V3.55908H31.3039C29.3827 3.55908 28.5289 4.48424 28.5289 6.25585V7.25976H26.8018V9.12978H28.5289V17.3382H30.6441V9.12978H34.2924V17.3382H36.4076V7.25976H30.6441L30.6441 6.41332Z" fill="white"/>
<path d="M43.6844 7.14185C42.0737 7.14185 41.1228 7.79142 40.5018 8.5788L40.269 7.25995H38.4448V17.3384H40.5407V12.2598C40.5407 10.2126 41.5304 8.97249 43.1993 8.97249C44.7711 8.97249 45.5668 9.99608 45.5668 11.9055V17.3384H47.682V11.7282C47.682 8.36227 45.8773 7.14185 43.6844 7.14185Z" fill="white"/>
<path d="M57.0552 8.65735C56.4149 7.77154 55.3475 7.14164 53.834 7.14164C51.1365 7.14164 49.1377 9.18882 49.1377 12.299C49.1377 15.5272 51.1365 17.4563 53.834 17.4563C55.4058 17.4563 56.4342 16.7083 57.0747 15.8224L57.327 17.3381H59.151V3.55908H57.0552L57.0552 8.65735ZM54.1831 15.665C52.4367 15.665 51.2917 14.2872 51.2917 12.299C51.2917 10.3305 52.4367 8.95262 54.1831 8.95262C55.9295 8.95262 57.0746 10.3305 57.0746 12.3383C57.0746 14.2872 55.9298 15.665 54.1831 15.665Z" fill="white"/>
<path d="M65.7296 7.14162C62.7994 7.14162 60.8394 9.20847 60.8394 12.3187C60.8394 15.4091 62.7994 17.4562 65.9237 17.4562C68.3883 17.4562 70.057 15.9406 70.4065 13.9524H68.3106C68.0195 15.0745 67.088 15.724 65.8072 15.724C64.1577 15.724 63.0904 14.6021 63.0323 12.8895V12.7516H70.5228C70.5617 12.4762 70.5811 12.2004 70.5811 11.9446C70.5228 8.99194 68.6017 7.14162 65.7296 7.14162ZM63.1099 11.1966C63.2651 9.75964 64.41 8.85416 65.7491 8.85416C67.2044 8.85416 68.233 9.70059 68.4076 11.1966H63.1099Z" fill="white"/>
<path d="M76.8489 8.95281C78.1491 8.95281 78.9834 9.68114 79.2552 10.8622H81.448C81.0406 8.57882 79.4492 7.14185 76.8876 7.14185C73.8798 7.14185 71.9004 9.2087 71.9004 12.3189C71.9004 15.4684 73.8216 17.4565 76.8295 17.4565C79.3716 17.4565 81.0599 16.0196 81.448 13.7362H79.2358C78.9834 14.8975 78.1296 15.6455 76.8489 15.6455C75.1606 15.6455 74.0545 14.2874 74.0545 12.3189C74.0545 10.3307 75.1606 8.95281 76.8489 8.95281Z" fill="white"/>
<path d="M87.7548 7.14185C84.7275 7.14185 82.6899 9.2284 82.6899 12.2992C82.6899 15.3897 84.7275 17.4565 87.7548 17.4565C90.7821 17.4565 92.8198 15.3897 92.8198 12.2992C92.8198 9.2284 90.7821 7.14185 87.7548 7.14185ZM87.7548 15.6455C85.9889 15.6455 84.844 14.2479 84.844 12.2992C84.844 10.3505 85.9889 8.95281 87.7548 8.95281C89.5207 8.95281 90.6851 10.3504 90.6851 12.2992C90.6851 14.2479 89.5208 15.6455 87.7548 15.6455Z" fill="white"/>
<path d="M99.5343 7.25977C97.9043 7.25977 97.1086 7.92904 96.6041 8.77547L96.3713 7.25977H94.5083V17.3382H96.6041V12.2792C96.6041 10.7242 97.2057 9.24789 99.0686 9.24789H100V7.25977H99.5343Z" fill="white"/>
<path d="M5.39592 10.4324L5.4472 10.416C5.52075 10.3926 5.59388 10.368 5.6666 10.3422C5.676 10.3389 5.68523 10.3352 5.6946 10.3318C5.75733 10.3093 5.81988 10.2862 5.88195 10.262C5.89878 10.2555 5.91533 10.2484 5.9321 10.2417C5.98636 10.22 6.04053 10.1982 6.09425 10.1753C6.11475 10.1666 6.13493 10.1572 6.15533 10.1483C6.20475 10.1267 6.25413 10.105 6.30306 10.0823C6.32631 10.0715 6.34921 10.0601 6.37235 10.0491C6.41783 10.0274 6.4633 10.0057 6.50831 9.98307C6.53375 9.97029 6.55883 9.95693 6.5841 9.94387C6.62615 9.92213 6.66818 9.90037 6.70981 9.87782C6.73695 9.86311 6.76375 9.84786 6.79066 9.83283C6.82983 9.81095 6.86898 9.78906 6.90776 9.76646C6.93586 9.75009 6.96363 9.73322 6.99148 9.71648C7.02861 9.69418 7.0657 9.67182 7.10245 9.64886C7.40168 9.46179 7.68581 9.25282 7.95443 9.02574C8.68635 10.4042 9.66908 11.6174 10.8481 12.6059C11.3398 11.9757 11.8983 11.4148 12.5135 10.9313C11.2437 9.9179 10.2398 8.58889 9.60328 7.05072C9.87763 6.57404 10.1019 6.06351 10.2684 5.52609L10.8443 3.66731L11.4202 5.52609C11.9621 7.27497 13.1128 8.74106 14.6245 9.67312C14.9228 9.54372 15.2288 9.42869 15.5419 9.32886L18.0705 8.52104L16.9395 8.16049C15.3693 7.65991 14.1371 6.4101 13.6436 4.81727L12.5079 1.15189L12.4849 1.0973C12.2032 0.43073 11.5593 0 10.8443 0C10.1293 0 9.48538 0.430713 9.2037 1.0973L9.18065 1.15189L8.04495 4.81727C7.55146 6.4101 6.31933 7.65989 4.74908 8.16049L1.13555 9.31246L1.08173 9.33584C0.424583 9.62157 0 10.2748 0 11C0 11.3853 0.119867 11.7503 0.330767 12.0506L3.61733 11.0006L3.61537 11L5.39592 10.4324Z" fill="white"/>
<path d="M18.0713 10.9995L18.0732 11.0001L16.5827 11.4753L16.2927 11.5677L16.2866 11.5697L16.2408 11.5843C16.2402 11.5845 16.2396 11.5847 16.2391 11.5849C16.2373 11.5855 16.2355 11.5861 16.2338 11.5866C16.172 11.6064 16.1107 11.6271 16.0497 11.6485C16.0358 11.6533 16.022 11.6582 16.0082 11.6631C15.9604 11.6801 15.9134 11.6986 15.8662 11.7166C15.8411 11.7261 15.8159 11.7352 15.791 11.7449C15.6746 11.7906 15.56 11.8396 15.4466 11.8909C15.4176 11.9041 15.3887 11.9175 15.3599 11.931C15.2471 11.9839 15.1355 12.039 15.026 12.0973C15.0038 12.1091 14.9821 12.1217 14.96 12.1337C14.8586 12.1891 14.7586 12.2466 14.6601 12.3066C14.642 12.3176 14.6236 12.3281 14.6056 12.3392C14.4998 12.4049 14.3963 12.4739 14.2941 12.5448C14.2681 12.5629 14.242 12.5809 14.2162 12.5993C14.1168 12.6702 14.0191 12.7433 13.9234 12.8189C13.9001 12.8373 13.8773 12.8562 13.8542 12.8749C13.7614 12.9501 13.6699 13.027 13.5809 13.1066C13.568 13.1181 13.5551 13.1296 13.5423 13.1412C13.453 13.2222 13.3661 13.3059 13.2808 13.3911C13.2591 13.4128 13.2373 13.4342 13.2159 13.4561C13.1311 13.5429 13.0486 13.6319 12.9681 13.7228C12.9466 13.7471 12.9254 13.7717 12.9042 13.7963C12.8254 13.8877 12.748 13.9804 12.6736 14.0757C12.6707 14.0793 12.6679 14.083 12.6651 14.0866C12.6602 14.0928 12.6554 14.099 12.6506 14.1052C12.6485 14.1079 12.6465 14.1104 12.6445 14.1131C12.5675 14.2129 12.4937 14.3154 12.4217 14.4192C12.3969 14.4551 12.3731 14.4917 12.3488 14.5281C12.2973 14.6052 12.2472 14.6833 12.1985 14.7625C12.1749 14.8008 12.1512 14.8391 12.1283 14.8779C12.069 14.9784 12.0117 15.0803 11.9569 15.1838C11.9492 15.1984 11.9408 15.2124 11.9332 15.227C11.872 15.3445 11.8148 15.4643 11.7597 15.5854C11.743 15.6222 11.7272 15.6594 11.711 15.6965C11.6711 15.788 11.633 15.8805 11.5967 15.974C11.5821 16.0116 11.5672 16.049 11.5531 16.0869C11.5059 16.2145 11.4608 16.3432 11.4203 16.474L10.8444 18.3328L10.2685 16.474C9.72647 14.7247 8.57532 13.2584 7.0631 12.3263C6.76368 12.4567 6.45788 12.5721 6.14673 12.6712L3.61816 13.4791L4.74916 13.8396C6.31943 14.3402 7.55155 15.59 8.04503 17.1828L9.18073 20.8482L9.20378 20.9028C9.48547 21.5694 10.1294 22.0001 10.8444 22.0001C11.5594 22.0001 12.2033 21.5694 12.485 20.9028L12.508 20.8482L12.5256 20.7916L13.6437 17.1828C14.1372 15.59 15.3693 14.3402 16.9396 13.8396L20.4973 12.7055L20.5531 12.6876L20.607 12.6643C21.2641 12.3785 21.6887 11.7253 21.6887 11.0001C21.6887 10.6148 21.5688 10.2498 21.3579 9.94946L18.0713 10.9995Z" fill="white"/>
<path d="M35.3594 3.28369C34.6414 3.28369 34.0786 3.81516 34.0786 4.56318C34.0786 5.31121 34.6414 5.84268 35.3594 5.84268C36.0774 5.84268 36.6402 5.31121 36.6402 4.56318C36.6402 3.81516 36.0774 3.28369 35.3594 3.28369Z" fill="url(#paint0_linear_3249_17863)"/>
<path d="M30.6441 6.41332C30.6441 5.72436 30.9158 5.4291 31.595 5.4291H33.0698V3.55908H31.3039C29.3827 3.55908 28.5289 4.48424 28.5289 6.25585V7.25976H26.8018V9.12978H28.5289V17.3382H30.6441V9.12978H34.2924V17.3382H36.4076V7.25976H30.6441L30.6441 6.41332Z" fill="url(#paint1_linear_3249_17863)"/>
<path d="M43.6844 7.14185C42.0737 7.14185 41.1228 7.79142 40.5018 8.5788L40.269 7.25995H38.4448V17.3384H40.5407V12.2598C40.5407 10.2126 41.5304 8.97249 43.1993 8.97249C44.7711 8.97249 45.5668 9.99608 45.5668 11.9055V17.3384H47.682V11.7282C47.682 8.36227 45.8773 7.14185 43.6844 7.14185Z" fill="url(#paint2_linear_3249_17863)"/>
<path d="M57.0552 8.65735C56.4149 7.77154 55.3475 7.14164 53.834 7.14164C51.1365 7.14164 49.1377 9.18882 49.1377 12.299C49.1377 15.5272 51.1365 17.4563 53.834 17.4563C55.4058 17.4563 56.4342 16.7083 57.0747 15.8224L57.327 17.3381H59.151V3.55908H57.0552L57.0552 8.65735ZM54.1831 15.665C52.4367 15.665 51.2917 14.2872 51.2917 12.299C51.2917 10.3305 52.4367 8.95262 54.1831 8.95262C55.9295 8.95262 57.0746 10.3305 57.0746 12.3383C57.0746 14.2872 55.9298 15.665 54.1831 15.665Z" fill="url(#paint3_linear_3249_17863)"/>
<path d="M65.7296 7.14162C62.7994 7.14162 60.8394 9.20847 60.8394 12.3187C60.8394 15.4091 62.7994 17.4562 65.9237 17.4562C68.3883 17.4562 70.057 15.9406 70.4065 13.9524H68.3106C68.0195 15.0745 67.088 15.724 65.8072 15.724C64.1577 15.724 63.0904 14.6021 63.0323 12.8895V12.7516H70.5228C70.5617 12.4762 70.5811 12.2004 70.5811 11.9446C70.5228 8.99194 68.6017 7.14162 65.7296 7.14162ZM63.1099 11.1966C63.2651 9.75964 64.41 8.85416 65.7491 8.85416C67.2044 8.85416 68.233 9.70059 68.4076 11.1966H63.1099Z" fill="url(#paint4_linear_3249_17863)"/>
<path d="M76.8489 8.95281C78.1491 8.95281 78.9834 9.68114 79.2552 10.8622H81.448C81.0406 8.57882 79.4492 7.14185 76.8876 7.14185C73.8798 7.14185 71.9004 9.2087 71.9004 12.3189C71.9004 15.4684 73.8216 17.4565 76.8295 17.4565C79.3716 17.4565 81.0599 16.0196 81.448 13.7362H79.2358C78.9834 14.8975 78.1296 15.6455 76.8489 15.6455C75.1606 15.6455 74.0545 14.2874 74.0545 12.3189C74.0545 10.3307 75.1606 8.95281 76.8489 8.95281Z" fill="url(#paint5_linear_3249_17863)"/>
<path d="M87.7548 7.14185C84.7275 7.14185 82.6899 9.2284 82.6899 12.2992C82.6899 15.3897 84.7275 17.4565 87.7548 17.4565C90.7821 17.4565 92.8198 15.3897 92.8198 12.2992C92.8198 9.2284 90.7821 7.14185 87.7548 7.14185ZM87.7548 15.6455C85.9889 15.6455 84.844 14.2479 84.844 12.2992C84.844 10.3505 85.9889 8.95281 87.7548 8.95281C89.5207 8.95281 90.6851 10.3504 90.6851 12.2992C90.6851 14.2479 89.5208 15.6455 87.7548 15.6455Z" fill="url(#paint6_linear_3249_17863)"/>
<path d="M99.5343 7.25977C97.9043 7.25977 97.1086 7.92904 96.6041 8.77547L96.3713 7.25977H94.5083V17.3382H96.6041V12.2792C96.6041 10.7242 97.2057 9.24789 99.0686 9.24789H100V7.25977H99.5343Z" fill="url(#paint7_linear_3249_17863)"/>
<path d="M35.3594 3.28369C34.6414 3.28369 34.0786 3.81516 34.0786 4.56318C34.0786 5.31121 34.6414 5.84268 35.3594 5.84268C36.0774 5.84268 36.6402 5.31121 36.6402 4.56318C36.6402 3.81516 36.0774 3.28369 35.3594 3.28369Z" fill="url(#paint8_linear_3249_17863)"/>
<path d="M30.6441 6.41332C30.6441 5.72436 30.9158 5.4291 31.595 5.4291H33.0698V3.55908H31.3039C29.3827 3.55908 28.5289 4.48424 28.5289 6.25585V7.25976H26.8018V9.12978H28.5289V17.3382H30.6441V9.12978H34.2924V17.3382H36.4076V7.25976H30.6441L30.6441 6.41332Z" fill="url(#paint9_linear_3249_17863)"/>
<path d="M43.6844 7.14185C42.0737 7.14185 41.1228 7.79142 40.5018 8.5788L40.269 7.25995H38.4448V17.3384H40.5407V12.2598C40.5407 10.2126 41.5304 8.97249 43.1993 8.97249C44.7711 8.97249 45.5668 9.99608 45.5668 11.9055V17.3384H47.682V11.7282C47.682 8.36227 45.8773 7.14185 43.6844 7.14185Z" fill="url(#paint10_linear_3249_17863)"/>
<path d="M57.0552 8.65735C56.4149 7.77154 55.3475 7.14164 53.834 7.14164C51.1365 7.14164 49.1377 9.18882 49.1377 12.299C49.1377 15.5272 51.1365 17.4563 53.834 17.4563C55.4058 17.4563 56.4342 16.7083 57.0747 15.8224L57.327 17.3381H59.151V3.55908H57.0552L57.0552 8.65735ZM54.1831 15.665C52.4367 15.665 51.2917 14.2872 51.2917 12.299C51.2917 10.3305 52.4367 8.95262 54.1831 8.95262C55.9295 8.95262 57.0746 10.3305 57.0746 12.3383C57.0746 14.2872 55.9298 15.665 54.1831 15.665Z" fill="url(#paint11_linear_3249_17863)"/>
<path d="M65.7296 7.14162C62.7994 7.14162 60.8394 9.20847 60.8394 12.3187C60.8394 15.4091 62.7994 17.4562 65.9237 17.4562C68.3883 17.4562 70.057 15.9406 70.4065 13.9524H68.3106C68.0195 15.0745 67.088 15.724 65.8072 15.724C64.1577 15.724 63.0904 14.6021 63.0323 12.8895V12.7516H70.5228C70.5617 12.4762 70.5811 12.2004 70.5811 11.9446C70.5228 8.99194 68.6017 7.14162 65.7296 7.14162ZM63.1099 11.1966C63.2651 9.75964 64.41 8.85416 65.7491 8.85416C67.2044 8.85416 68.233 9.70059 68.4076 11.1966H63.1099Z" fill="url(#paint12_linear_3249_17863)"/>
<path d="M76.8489 8.95281C78.1491 8.95281 78.9834 9.68114 79.2552 10.8622H81.448C81.0406 8.57882 79.4492 7.14185 76.8876 7.14185C73.8798 7.14185 71.9004 9.2087 71.9004 12.3189C71.9004 15.4684 73.8216 17.4565 76.8295 17.4565C79.3716 17.4565 81.0599 16.0196 81.448 13.7362H79.2358C78.9834 14.8975 78.1296 15.6455 76.8489 15.6455C75.1606 15.6455 74.0545 14.2874 74.0545 12.3189C74.0545 10.3307 75.1606 8.95281 76.8489 8.95281Z" fill="url(#paint13_linear_3249_17863)"/>
<path d="M87.7548 7.14185C84.7275 7.14185 82.6899 9.2284 82.6899 12.2992C82.6899 15.3897 84.7275 17.4565 87.7548 17.4565C90.7821 17.4565 92.8198 15.3897 92.8198 12.2992C92.8198 9.2284 90.7821 7.14185 87.7548 7.14185ZM87.7548 15.6455C85.9889 15.6455 84.844 14.2479 84.844 12.2992C84.844 10.3505 85.9889 8.95281 87.7548 8.95281C89.5207 8.95281 90.6851 10.3504 90.6851 12.2992C90.6851 14.2479 89.5208 15.6455 87.7548 15.6455Z" fill="url(#paint14_linear_3249_17863)"/>
<path d="M99.5343 7.25977C97.9043 7.25977 97.1086 7.92904 96.6041 8.77547L96.3713 7.25977H94.5083V17.3382H96.6041V12.2792C96.6041 10.7242 97.2057 9.24789 99.0686 9.24789H100V7.25977H99.5343Z" fill="url(#paint15_linear_3249_17863)"/>
<path d="M35.3594 3.28369C34.6414 3.28369 34.0786 3.81516 34.0786 4.56318C34.0786 5.31121 34.6414 5.84268 35.3594 5.84268C36.0774 5.84268 36.6402 5.31121 36.6402 4.56318C36.6402 3.81516 36.0774 3.28369 35.3594 3.28369Z" fill="url(#paint16_linear_3249_17863)"/>
<path d="M30.6441 6.41332C30.6441 5.72436 30.9158 5.4291 31.595 5.4291H33.0698V3.55908H31.3039C29.3827 3.55908 28.5289 4.48424 28.5289 6.25585V7.25976H26.8018V9.12978H28.5289V17.3382H30.6441V9.12978H34.2924V17.3382H36.4076V7.25976H30.6441L30.6441 6.41332Z" fill="url(#paint17_linear_3249_17863)"/>
<path d="M43.6844 7.14185C42.0737 7.14185 41.1228 7.79142 40.5018 8.5788L40.269 7.25995H38.4448V17.3384H40.5407V12.2598C40.5407 10.2126 41.5304 8.97249 43.1993 8.97249C44.7711 8.97249 45.5668 9.99608 45.5668 11.9055V17.3384H47.682V11.7282C47.682 8.36227 45.8773 7.14185 43.6844 7.14185Z" fill="url(#paint18_linear_3249_17863)"/>
<path d="M57.0552 8.65735C56.4149 7.77154 55.3475 7.14164 53.834 7.14164C51.1365 7.14164 49.1377 9.18882 49.1377 12.299C49.1377 15.5272 51.1365 17.4563 53.834 17.4563C55.4058 17.4563 56.4342 16.7083 57.0747 15.8224L57.327 17.3381H59.151V3.55908H57.0552L57.0552 8.65735ZM54.1831 15.665C52.4367 15.665 51.2917 14.2872 51.2917 12.299C51.2917 10.3305 52.4367 8.95262 54.1831 8.95262C55.9295 8.95262 57.0746 10.3305 57.0746 12.3383C57.0746 14.2872 55.9298 15.665 54.1831 15.665Z" fill="url(#paint19_linear_3249_17863)"/>
<path d="M65.7296 7.14162C62.7994 7.14162 60.8394 9.20847 60.8394 12.3187C60.8394 15.4091 62.7994 17.4562 65.9237 17.4562C68.3883 17.4562 70.057 15.9406 70.4065 13.9524H68.3106C68.0195 15.0745 67.088 15.724 65.8072 15.724C64.1577 15.724 63.0904 14.6021 63.0323 12.8895V12.7516H70.5228C70.5617 12.4762 70.5811 12.2004 70.5811 11.9446C70.5228 8.99194 68.6017 7.14162 65.7296 7.14162ZM63.1099 11.1966C63.2651 9.75964 64.41 8.85416 65.7491 8.85416C67.2044 8.85416 68.233 9.70059 68.4076 11.1966H63.1099Z" fill="url(#paint20_linear_3249_17863)"/>
<path d="M76.8489 8.95281C78.1491 8.95281 78.9834 9.68114 79.2552 10.8622H81.448C81.0406 8.57882 79.4492 7.14185 76.8876 7.14185C73.8798 7.14185 71.9004 9.2087 71.9004 12.3189C71.9004 15.4684 73.8216 17.4565 76.8295 17.4565C79.3716 17.4565 81.0599 16.0196 81.448 13.7362H79.2358C78.9834 14.8975 78.1296 15.6455 76.8489 15.6455C75.1606 15.6455 74.0545 14.2874 74.0545 12.3189C74.0545 10.3307 75.1606 8.95281 76.8489 8.95281Z" fill="url(#paint21_linear_3249_17863)"/>
<path d="M87.7548 7.14185C84.7275 7.14185 82.6899 9.2284 82.6899 12.2992C82.6899 15.3897 84.7275 17.4565 87.7548 17.4565C90.7821 17.4565 92.8198 15.3897 92.8198 12.2992C92.8198 9.2284 90.7821 7.14185 87.7548 7.14185ZM87.7548 15.6455C85.9889 15.6455 84.844 14.2479 84.844 12.2992C84.844 10.3505 85.9889 8.95281 87.7548 8.95281C89.5207 8.95281 90.6851 10.3504 90.6851 12.2992C90.6851 14.2479 89.5208 15.6455 87.7548 15.6455Z" fill="url(#paint22_linear_3249_17863)"/>
<path d="M99.5343 7.25977C97.9043 7.25977 97.1086 7.92904 96.6041 8.77547L96.3713 7.25977H94.5083V17.3382H96.6041V12.2792C96.6041 10.7242 97.2057 9.24789 99.0686 9.24789H100V7.25977H99.5343Z" fill="url(#paint23_linear_3249_17863)"/>
<path d="M5.39592 10.4324L5.4472 10.416C5.52075 10.3926 5.59388 10.368 5.6666 10.3422C5.676 10.3389 5.68523 10.3352 5.6946 10.3318C5.75733 10.3093 5.81988 10.2862 5.88195 10.262C5.89878 10.2555 5.91533 10.2484 5.9321 10.2417C5.98636 10.22 6.04053 10.1982 6.09425 10.1753C6.11475 10.1666 6.13493 10.1572 6.15533 10.1483C6.20475 10.1267 6.25413 10.105 6.30306 10.0823C6.32631 10.0715 6.34921 10.0601 6.37235 10.0491C6.41783 10.0274 6.4633 10.0057 6.50831 9.98307C6.53375 9.97029 6.55883 9.95693 6.5841 9.94387C6.62615 9.92213 6.66818 9.90037 6.70981 9.87782C6.73695 9.86311 6.76375 9.84786 6.79066 9.83283C6.82983 9.81095 6.86898 9.78906 6.90776 9.76646C6.93586 9.75009 6.96363 9.73322 6.99148 9.71648C7.02861 9.69418 7.0657 9.67182 7.10245 9.64886C7.40168 9.46179 7.68581 9.25282 7.95443 9.02574C8.68635 10.4042 9.66908 11.6174 10.8481 12.6059C11.3398 11.9757 11.8983 11.4148 12.5135 10.9313C11.2437 9.9179 10.2398 8.58889 9.60328 7.05072C9.87763 6.57404 10.1019 6.06351 10.2684 5.52609L10.8443 3.66731L11.4202 5.52609C11.9621 7.27497 13.1128 8.74106 14.6245 9.67312C14.9228 9.54372 15.2288 9.42869 15.5419 9.32886L18.0705 8.52104L16.9395 8.16049C15.3693 7.65991 14.1371 6.4101 13.6436 4.81727L12.5079 1.15189L12.4849 1.0973C12.2032 0.43073 11.5593 0 10.8443 0C10.1293 0 9.48538 0.430713 9.2037 1.0973L9.18065 1.15189L8.04495 4.81727C7.55146 6.4101 6.31933 7.65989 4.74908 8.16049L1.13555 9.31246L1.08173 9.33584C0.424583 9.62157 0 10.2748 0 11C0 11.3853 0.119867 11.7503 0.330767 12.0506L3.61733 11.0006L3.61537 11L5.39592 10.4324Z" fill="url(#paint24_linear_3249_17863)"/>
<path d="M18.0713 10.9995L18.0732 11.0001L16.5827 11.4753L16.2927 11.5677L16.2866 11.5697L16.2408 11.5843C16.2402 11.5845 16.2396 11.5847 16.2391 11.5849C16.2373 11.5855 16.2355 11.5861 16.2338 11.5866C16.172 11.6064 16.1107 11.6271 16.0497 11.6485C16.0358 11.6533 16.022 11.6582 16.0082 11.6631C15.9604 11.6801 15.9134 11.6986 15.8662 11.7166C15.8411 11.7261 15.8159 11.7352 15.791 11.7449C15.6746 11.7906 15.56 11.8396 15.4466 11.8909C15.4176 11.9041 15.3887 11.9175 15.3599 11.931C15.2471 11.9839 15.1355 12.039 15.026 12.0973C15.0038 12.1091 14.9821 12.1217 14.96 12.1337C14.8586 12.1891 14.7586 12.2466 14.6601 12.3066C14.642 12.3176 14.6236 12.3281 14.6056 12.3392C14.4998 12.4049 14.3963 12.4739 14.2941 12.5448C14.2681 12.5629 14.242 12.5809 14.2162 12.5993C14.1168 12.6702 14.0191 12.7433 13.9234 12.8189C13.9001 12.8373 13.8773 12.8562 13.8542 12.8749C13.7614 12.9501 13.6699 13.027 13.5809 13.1066C13.568 13.1181 13.5551 13.1296 13.5423 13.1412C13.453 13.2222 13.3661 13.3059 13.2808 13.3911C13.2591 13.4128 13.2373 13.4342 13.2159 13.4561C13.1311 13.5429 13.0486 13.6319 12.9681 13.7228C12.9466 13.7471 12.9254 13.7717 12.9042 13.7963C12.8254 13.8877 12.748 13.9804 12.6736 14.0757C12.6707 14.0793 12.6679 14.083 12.6651 14.0866C12.6602 14.0928 12.6554 14.099 12.6506 14.1052C12.6485 14.1079 12.6465 14.1104 12.6445 14.1131C12.5675 14.2129 12.4937 14.3154 12.4217 14.4192C12.3969 14.4551 12.3731 14.4917 12.3488 14.5281C12.2973 14.6052 12.2472 14.6833 12.1985 14.7625C12.1749 14.8008 12.1512 14.8391 12.1283 14.8779C12.069 14.9784 12.0117 15.0803 11.9569 15.1838C11.9492 15.1984 11.9408 15.2124 11.9332 15.227C11.872 15.3445 11.8148 15.4643 11.7597 15.5854C11.743 15.6222 11.7272 15.6594 11.711 15.6965C11.6711 15.788 11.633 15.8805 11.5967 15.974C11.5821 16.0116 11.5672 16.049 11.5531 16.0869C11.5059 16.2145 11.4608 16.3432 11.4203 16.474L10.8444 18.3328L10.2685 16.474C9.72647 14.7247 8.57532 13.2584 7.0631 12.3263C6.76368 12.4567 6.45788 12.5721 6.14673 12.6712L3.61816 13.4791L4.74916 13.8396C6.31943 14.3402 7.55155 15.59 8.04503 17.1828L9.18073 20.8482L9.20378 20.9028C9.48547 21.5694 10.1294 22.0001 10.8444 22.0001C11.5594 22.0001 12.2033 21.5694 12.485 20.9028L12.508 20.8482L12.5256 20.7916L13.6437 17.1828C14.1372 15.59 15.3693 14.3402 16.9396 13.8396L20.4973 12.7055L20.5531 12.6876L20.607 12.6643C21.2641 12.3785 21.6887 11.7253 21.6887 11.0001C21.6887 10.6148 21.5688 10.2498 21.3579 9.94946L18.0713 10.9995Z" fill="url(#paint25_linear_3249_17863)"/>
<path d="M5.39592 10.4324L5.4472 10.416C5.52075 10.3926 5.59388 10.368 5.6666 10.3422C5.676 10.3389 5.68523 10.3352 5.6946 10.3318C5.75733 10.3093 5.81988 10.2862 5.88195 10.262C5.89878 10.2555 5.91533 10.2484 5.9321 10.2417C5.98636 10.22 6.04053 10.1982 6.09425 10.1753C6.11475 10.1666 6.13493 10.1572 6.15533 10.1483C6.20475 10.1267 6.25413 10.105 6.30306 10.0823C6.32631 10.0715 6.34921 10.0601 6.37235 10.0491C6.41783 10.0274 6.4633 10.0057 6.50831 9.98307C6.53375 9.97029 6.55883 9.95693 6.5841 9.94387C6.62615 9.92213 6.66818 9.90037 6.70981 9.87782C6.73695 9.86311 6.76375 9.84786 6.79066 9.83283C6.82983 9.81095 6.86898 9.78906 6.90776 9.76646C6.93586 9.75009 6.96363 9.73322 6.99148 9.71648C7.02861 9.69418 7.0657 9.67182 7.10245 9.64886C7.40168 9.46179 7.68581 9.25282 7.95443 9.02574C8.68635 10.4042 9.66908 11.6174 10.8481 12.6059C11.3398 11.9757 11.8983 11.4148 12.5135 10.9313C11.2437 9.9179 10.2398 8.58889 9.60328 7.05072C9.87763 6.57404 10.1019 6.06351 10.2684 5.52609L10.8443 3.66731L11.4202 5.52609C11.9621 7.27497 13.1128 8.74106 14.6245 9.67312C14.9228 9.54372 15.2288 9.42869 15.5419 9.32886L18.0705 8.52104L16.9395 8.16049C15.3693 7.65991 14.1371 6.4101 13.6436 4.81727L12.5079 1.15189L12.4849 1.0973C12.2032 0.43073 11.5593 0 10.8443 0C10.1293 0 9.48538 0.430713 9.2037 1.0973L9.18065 1.15189L8.04495 4.81727C7.55146 6.4101 6.31933 7.65989 4.74908 8.16049L1.13555 9.31246L1.08173 9.33584C0.424583 9.62157 0 10.2748 0 11C0 11.3853 0.119867 11.7503 0.330767 12.0506L3.61733 11.0006L3.61537 11L5.39592 10.4324Z" fill="url(#paint26_linear_3249_17863)"/>
<path d="M18.0713 10.9995L18.0732 11.0001L16.5827 11.4753L16.2927 11.5677L16.2866 11.5697L16.2408 11.5843C16.2402 11.5845 16.2396 11.5847 16.2391 11.5849C16.2373 11.5855 16.2355 11.5861 16.2338 11.5866C16.172 11.6064 16.1107 11.6271 16.0497 11.6485C16.0358 11.6533 16.022 11.6582 16.0082 11.6631C15.9604 11.6801 15.9134 11.6986 15.8662 11.7166C15.8411 11.7261 15.8159 11.7352 15.791 11.7449C15.6746 11.7906 15.56 11.8396 15.4466 11.8909C15.4176 11.9041 15.3887 11.9175 15.3599 11.931C15.2471 11.9839 15.1355 12.039 15.026 12.0973C15.0038 12.1091 14.9821 12.1217 14.96 12.1337C14.8586 12.1891 14.7586 12.2466 14.6601 12.3066C14.642 12.3176 14.6236 12.3281 14.6056 12.3392C14.4998 12.4049 14.3963 12.4739 14.2941 12.5448C14.2681 12.5629 14.242 12.5809 14.2162 12.5993C14.1168 12.6702 14.0191 12.7433 13.9234 12.8189C13.9001 12.8373 13.8773 12.8562 13.8542 12.8749C13.7614 12.9501 13.6699 13.027 13.5809 13.1066C13.568 13.1181 13.5551 13.1296 13.5423 13.1412C13.453 13.2222 13.3661 13.3059 13.2808 13.3911C13.2591 13.4128 13.2373 13.4342 13.2159 13.4561C13.1311 13.5429 13.0486 13.6319 12.9681 13.7228C12.9466 13.7471 12.9254 13.7717 12.9042 13.7963C12.8254 13.8877 12.748 13.9804 12.6736 14.0757C12.6707 14.0793 12.6679 14.083 12.6651 14.0866C12.6602 14.0928 12.6554 14.099 12.6506 14.1052C12.6485 14.1079 12.6465 14.1104 12.6445 14.1131C12.5675 14.2129 12.4937 14.3154 12.4217 14.4192C12.3969 14.4551 12.3731 14.4917 12.3488 14.5281C12.2973 14.6052 12.2472 14.6833 12.1985 14.7625C12.1749 14.8008 12.1512 14.8391 12.1283 14.8779C12.069 14.9784 12.0117 15.0803 11.9569 15.1838C11.9492 15.1984 11.9408 15.2124 11.9332 15.227C11.872 15.3445 11.8148 15.4643 11.7597 15.5854C11.743 15.6222 11.7272 15.6594 11.711 15.6965C11.6711 15.788 11.633 15.8805 11.5967 15.974C11.5821 16.0116 11.5672 16.049 11.5531 16.0869C11.5059 16.2145 11.4608 16.3432 11.4203 16.474L10.8444 18.3328L10.2685 16.474C9.72647 14.7247 8.57532 13.2584 7.0631 12.3263C6.76368 12.4567 6.45788 12.5721 6.14673 12.6712L3.61816 13.4791L4.74916 13.8396C6.31943 14.3402 7.55155 15.59 8.04503 17.1828L9.18073 20.8482L9.20378 20.9028C9.48547 21.5694 10.1294 22.0001 10.8444 22.0001C11.5594 22.0001 12.2033 21.5694 12.485 20.9028L12.508 20.8482L12.5256 20.7916L13.6437 17.1828C14.1372 15.59 15.3693 14.3402 16.9396 13.8396L20.4973 12.7055L20.5531 12.6876L20.607 12.6643C21.2641 12.3785 21.6887 11.7253 21.6887 11.0001C21.6887 10.6148 21.5688 10.2498 21.3579 9.94946L18.0713 10.9995Z" fill="url(#paint27_linear_3249_17863)"/>
<path d="M5.39592 10.4324L5.4472 10.416C5.52075 10.3926 5.59388 10.368 5.6666 10.3422C5.676 10.3389 5.68523 10.3352 5.6946 10.3318C5.75733 10.3093 5.81988 10.2862 5.88195 10.262C5.89878 10.2555 5.91533 10.2484 5.9321 10.2417C5.98636 10.22 6.04053 10.1982 6.09425 10.1753C6.11475 10.1666 6.13493 10.1572 6.15533 10.1483C6.20475 10.1267 6.25413 10.105 6.30306 10.0823C6.32631 10.0715 6.34921 10.0601 6.37235 10.0491C6.41783 10.0274 6.4633 10.0057 6.50831 9.98307C6.53375 9.97029 6.55883 9.95693 6.5841 9.94387C6.62615 9.92213 6.66818 9.90037 6.70981 9.87782C6.73695 9.86311 6.76375 9.84786 6.79066 9.83283C6.82983 9.81095 6.86898 9.78906 6.90776 9.76646C6.93586 9.75009 6.96363 9.73322 6.99148 9.71648C7.02861 9.69418 7.0657 9.67182 7.10245 9.64886C7.40168 9.46179 7.68581 9.25282 7.95443 9.02574C8.68635 10.4042 9.66908 11.6174 10.8481 12.6059C11.3398 11.9757 11.8983 11.4148 12.5135 10.9313C11.2437 9.9179 10.2398 8.58889 9.60328 7.05072C9.87763 6.57404 10.1019 6.06351 10.2684 5.52609L10.8443 3.66731L11.4202 5.52609C11.9621 7.27497 13.1128 8.74106 14.6245 9.67312C14.9228 9.54372 15.2288 9.42869 15.5419 9.32886L18.0705 8.52104L16.9395 8.16049C15.3693 7.65991 14.1371 6.4101 13.6436 4.81727L12.5079 1.15189L12.4849 1.0973C12.2032 0.43073 11.5593 0 10.8443 0C10.1293 0 9.48538 0.430713 9.2037 1.0973L9.18065 1.15189L8.04495 4.81727C7.55146 6.4101 6.31933 7.65989 4.74908 8.16049L1.13555 9.31246L1.08173 9.33584C0.424583 9.62157 0 10.2748 0 11C0 11.3853 0.119867 11.7503 0.330767 12.0506L3.61733 11.0006L3.61537 11L5.39592 10.4324Z" fill="url(#paint28_linear_3249_17863)"/>
<path d="M18.0713 10.9995L18.0732 11.0001L16.5827 11.4753L16.2927 11.5677L16.2866 11.5697L16.2408 11.5843C16.2402 11.5845 16.2396 11.5847 16.2391 11.5849C16.2373 11.5855 16.2355 11.5861 16.2338 11.5866C16.172 11.6064 16.1107 11.6271 16.0497 11.6485C16.0358 11.6533 16.022 11.6582 16.0082 11.6631C15.9604 11.6801 15.9134 11.6986 15.8662 11.7166C15.8411 11.7261 15.8159 11.7352 15.791 11.7449C15.6746 11.7906 15.56 11.8396 15.4466 11.8909C15.4176 11.9041 15.3887 11.9175 15.3599 11.931C15.2471 11.9839 15.1355 12.039 15.026 12.0973C15.0038 12.1091 14.9821 12.1217 14.96 12.1337C14.8586 12.1891 14.7586 12.2466 14.6601 12.3066C14.642 12.3176 14.6236 12.3281 14.6056 12.3392C14.4998 12.4049 14.3963 12.4739 14.2941 12.5448C14.2681 12.5629 14.242 12.5809 14.2162 12.5993C14.1168 12.6702 14.0191 12.7433 13.9234 12.8189C13.9001 12.8373 13.8773 12.8562 13.8542 12.8749C13.7614 12.9501 13.6699 13.027 13.5809 13.1066C13.568 13.1181 13.5551 13.1296 13.5423 13.1412C13.453 13.2222 13.3661 13.3059 13.2808 13.3911C13.2591 13.4128 13.2373 13.4342 13.2159 13.4561C13.1311 13.5429 13.0486 13.6319 12.9681 13.7228C12.9466 13.7471 12.9254 13.7717 12.9042 13.7963C12.8254 13.8877 12.748 13.9804 12.6736 14.0757C12.6707 14.0793 12.6679 14.083 12.6651 14.0866C12.6602 14.0928 12.6554 14.099 12.6506 14.1052C12.6485 14.1079 12.6465 14.1104 12.6445 14.1131C12.5675 14.2129 12.4937 14.3154 12.4217 14.4192C12.3969 14.4551 12.3731 14.4917 12.3488 14.5281C12.2973 14.6052 12.2472 14.6833 12.1985 14.7625C12.1749 14.8008 12.1512 14.8391 12.1283 14.8779C12.069 14.9784 12.0117 15.0803 11.9569 15.1838C11.9492 15.1984 11.9408 15.2124 11.9332 15.227C11.872 15.3445 11.8148 15.4643 11.7597 15.5854C11.743 15.6222 11.7272 15.6594 11.711 15.6965C11.6711 15.788 11.633 15.8805 11.5967 15.974C11.5821 16.0116 11.5672 16.049 11.5531 16.0869C11.5059 16.2145 11.4608 16.3432 11.4203 16.474L10.8444 18.3328L10.2685 16.474C9.72647 14.7247 8.57532 13.2584 7.0631 12.3263C6.76368 12.4567 6.45788 12.5721 6.14673 12.6712L3.61816 13.4791L4.74916 13.8396C6.31943 14.3402 7.55155 15.59 8.04503 17.1828L9.18073 20.8482L9.20378 20.9028C9.48547 21.5694 10.1294 22.0001 10.8444 22.0001C11.5594 22.0001 12.2033 21.5694 12.485 20.9028L12.508 20.8482L12.5256 20.7916L13.6437 17.1828C14.1372 15.59 15.3693 14.3402 16.9396 13.8396L20.4973 12.7055L20.5531 12.6876L20.607 12.6643C21.2641 12.3785 21.6887 11.7253 21.6887 11.0001C21.6887 10.6148 21.5688 10.2498 21.3579 9.94946L18.0713 10.9995Z" fill="url(#paint29_linear_3249_17863)"/>
</g>
<defs>
<linearGradient id="paint0_linear_3249_17863" x1="12.1685" y1="32.8655" x2="89.5161" y2="-11.1591" gradientUnits="userSpaceOnUse">
<stop stop-color="#FDAF00"/>
<stop offset="0.5307" stop-color="#FD7100"/>
<stop offset="1"/>
</linearGradient>
<linearGradient id="paint1_linear_3249_17863" x1="12.1688" y1="32.8653" x2="89.5164" y2="-11.1593" gradientUnits="userSpaceOnUse">
<stop stop-color="#FDAF00"/>
<stop offset="0.5307" stop-color="#FD7100"/>
<stop offset="1"/>
</linearGradient>
<linearGradient id="paint2_linear_3249_17863" x1="12.1684" y1="32.8655" x2="89.5161" y2="-11.1591" gradientUnits="userSpaceOnUse">
<stop stop-color="#FDAF00"/>
<stop offset="0.5307" stop-color="#FD7100"/>
<stop offset="1"/>
</linearGradient>
<linearGradient id="paint3_linear_3249_17863" x1="12.1687" y1="32.8653" x2="89.5163" y2="-11.1593" gradientUnits="userSpaceOnUse">
<stop stop-color="#FDAF00"/>
<stop offset="0.5307" stop-color="#FD7100"/>
<stop offset="1"/>
</linearGradient>
<linearGradient id="paint4_linear_3249_17863" x1="12.1688" y1="32.8653" x2="89.5164" y2="-11.1593" gradientUnits="userSpaceOnUse">
<stop stop-color="#FDAF00"/>
<stop offset="0.5307" stop-color="#FD7100"/>
<stop offset="1"/>
</linearGradient>
<linearGradient id="paint5_linear_3249_17863" x1="12.1686" y1="32.8655" x2="89.5162" y2="-11.159" gradientUnits="userSpaceOnUse">
<stop stop-color="#FDAF00"/>
<stop offset="0.5307" stop-color="#FD7100"/>
<stop offset="1"/>
</linearGradient>
<linearGradient id="paint6_linear_3249_17863" x1="12.1685" y1="32.8655" x2="89.5161" y2="-11.1591" gradientUnits="userSpaceOnUse">
<stop stop-color="#FDAF00"/>
<stop offset="0.5307" stop-color="#FD7100"/>
<stop offset="1"/>
</linearGradient>
<linearGradient id="paint7_linear_3249_17863" x1="12.1687" y1="32.8653" x2="89.5163" y2="-11.1593" gradientUnits="userSpaceOnUse">
<stop stop-color="#FDAF00"/>
<stop offset="0.5307" stop-color="#FD7100"/>
<stop offset="1"/>
</linearGradient>
<linearGradient id="paint8_linear_3249_17863" x1="12.1685" y1="32.8655" x2="89.5161" y2="-11.1591" gradientUnits="userSpaceOnUse">
<stop stop-color="#FDAF00"/>
<stop offset="0.5307" stop-color="#FD7100"/>
<stop offset="1"/>
</linearGradient>
<linearGradient id="paint9_linear_3249_17863" x1="12.1688" y1="32.8653" x2="89.5164" y2="-11.1593" gradientUnits="userSpaceOnUse">
<stop stop-color="#FDAF00"/>
<stop offset="0.5307" stop-color="#FD7100"/>
<stop offset="1"/>
</linearGradient>
<linearGradient id="paint10_linear_3249_17863" x1="12.1684" y1="32.8655" x2="89.5161" y2="-11.1591" gradientUnits="userSpaceOnUse">
<stop stop-color="#FDAF00"/>
<stop offset="0.5307" stop-color="#FD7100"/>
<stop offset="1"/>
</linearGradient>
<linearGradient id="paint11_linear_3249_17863" x1="12.1687" y1="32.8653" x2="89.5163" y2="-11.1593" gradientUnits="userSpaceOnUse">
<stop stop-color="#FDAF00"/>
<stop offset="0.5307" stop-color="#FD7100"/>
<stop offset="1"/>
</linearGradient>
<linearGradient id="paint12_linear_3249_17863" x1="12.1688" y1="32.8653" x2="89.5164" y2="-11.1593" gradientUnits="userSpaceOnUse">
<stop stop-color="#FDAF00"/>
<stop offset="0.5307" stop-color="#FD7100"/>
<stop offset="1"/>
</linearGradient>
<linearGradient id="paint13_linear_3249_17863" x1="12.1686" y1="32.8655" x2="89.5162" y2="-11.159" gradientUnits="userSpaceOnUse">
<stop stop-color="#FDAF00"/>
<stop offset="0.5307" stop-color="#FD7100"/>
<stop offset="1"/>
</linearGradient>
<linearGradient id="paint14_linear_3249_17863" x1="12.1685" y1="32.8655" x2="89.5161" y2="-11.1591" gradientUnits="userSpaceOnUse">
<stop stop-color="#FDAF00"/>
<stop offset="0.5307" stop-color="#FD7100"/>
<stop offset="1"/>
</linearGradient>
<linearGradient id="paint15_linear_3249_17863" x1="12.1687" y1="32.8653" x2="89.5163" y2="-11.1593" gradientUnits="userSpaceOnUse">
<stop stop-color="#FDAF00"/>
<stop offset="0.5307" stop-color="#FD7100"/>
<stop offset="1"/>
</linearGradient>
<linearGradient id="paint16_linear_3249_17863" x1="12.1685" y1="32.8655" x2="89.5161" y2="-11.1591" gradientUnits="userSpaceOnUse">
<stop stop-color="#FDAF00"/>
<stop offset="0.5307" stop-color="#FD7100"/>
<stop offset="1"/>
</linearGradient>
<linearGradient id="paint17_linear_3249_17863" x1="12.1688" y1="32.8653" x2="89.5164" y2="-11.1593" gradientUnits="userSpaceOnUse">
<stop stop-color="#FDAF00"/>
<stop offset="0.5307" stop-color="#FD7100"/>
<stop offset="1"/>
</linearGradient>
<linearGradient id="paint18_linear_3249_17863" x1="12.1684" y1="32.8655" x2="89.5161" y2="-11.1591" gradientUnits="userSpaceOnUse">
<stop stop-color="#FDAF00"/>
<stop offset="0.5307" stop-color="#FD7100"/>
<stop offset="1"/>
</linearGradient>
<linearGradient id="paint19_linear_3249_17863" x1="12.1687" y1="32.8653" x2="89.5163" y2="-11.1593" gradientUnits="userSpaceOnUse">
<stop stop-color="#FDAF00"/>
<stop offset="0.5307" stop-color="#FD7100"/>
<stop offset="1"/>
</linearGradient>
<linearGradient id="paint20_linear_3249_17863" x1="12.1688" y1="32.8653" x2="89.5164" y2="-11.1593" gradientUnits="userSpaceOnUse">
<stop stop-color="#FDAF00"/>
<stop offset="0.5307" stop-color="#FD7100"/>
<stop offset="1"/>
</linearGradient>
<linearGradient id="paint21_linear_3249_17863" x1="12.1686" y1="32.8655" x2="89.5162" y2="-11.159" gradientUnits="userSpaceOnUse">
<stop stop-color="#FDAF00"/>
<stop offset="0.5307" stop-color="#FD7100"/>
<stop offset="1"/>
</linearGradient>
<linearGradient id="paint22_linear_3249_17863" x1="12.1685" y1="32.8655" x2="89.5161" y2="-11.1591" gradientUnits="userSpaceOnUse">
<stop stop-color="#FDAF00"/>
<stop offset="0.5307" stop-color="#FD7100"/>
<stop offset="1"/>
</linearGradient>
<linearGradient id="paint23_linear_3249_17863" x1="12.1687" y1="32.8653" x2="89.5163" y2="-11.1593" gradientUnits="userSpaceOnUse">
<stop stop-color="#FDAF00"/>
<stop offset="0.5307" stop-color="#FD7100"/>
<stop offset="1"/>
</linearGradient>
<linearGradient id="paint24_linear_3249_17863" x1="12.1687" y1="32.8654" x2="89.5163" y2="-11.1591" gradientUnits="userSpaceOnUse">
<stop stop-color="#FDAF00"/>
<stop offset="0.5307" stop-color="#FD7100"/>
<stop offset="1"/>
</linearGradient>
<linearGradient id="paint25_linear_3249_17863" x1="12.1687" y1="32.8655" x2="89.5163" y2="-11.1591" gradientUnits="userSpaceOnUse">
<stop stop-color="#FDAF00"/>
<stop offset="0.5307" stop-color="#FD7100"/>
<stop offset="1"/>
</linearGradient>
<linearGradient id="paint26_linear_3249_17863" x1="12.1687" y1="32.8654" x2="89.5163" y2="-11.1591" gradientUnits="userSpaceOnUse">
<stop stop-color="#FDAF00"/>
<stop offset="0.5307" stop-color="#FD7100"/>
<stop offset="1"/>
</linearGradient>
<linearGradient id="paint27_linear_3249_17863" x1="12.1687" y1="32.8655" x2="89.5163" y2="-11.1591" gradientUnits="userSpaceOnUse">
<stop stop-color="#FDAF00"/>
<stop offset="0.5307" stop-color="#FD7100"/>
<stop offset="1"/>
</linearGradient>
<linearGradient id="paint28_linear_3249_17863" x1="12.1687" y1="32.8654" x2="89.5163" y2="-11.1591" gradientUnits="userSpaceOnUse">
<stop stop-color="#FDAF00"/>
<stop offset="0.5307" stop-color="#FD7100"/>
<stop offset="1"/>
</linearGradient>
<linearGradient id="paint29_linear_3249_17863" x1="12.1687" y1="32.8655" x2="89.5163" y2="-11.1591" gradientUnits="userSpaceOnUse">
<stop stop-color="#FDAF00"/>
<stop offset="0.5307" stop-color="#FD7100"/>
<stop offset="1"/>
</linearGradient>
<clipPath id="clip0_3249_17863">
<rect width="100" height="22" fill="white"/>
</clipPath>
</defs>
</svg>
