<svg width="22" height="22" viewBox="0 0 22 22" fill="none" xmlns="http://www.w3.org/2000/svg">
  <path d="M5.39592 10.4324L5.4472 10.416C5.52075 10.3926 5.59388 10.368 5.6666 10.3422C5.676 10.3389 5.68523 10.3352 5.6946 10.3318C5.75733 10.3093 5.81988 10.2862 5.88195 10.262C5.89878 10.2555 5.91533 10.2484 5.9321 10.2417C5.98636 10.22 6.04053 10.1982 6.09425 10.1753C6.11475 10.1666 6.13493 10.1572 6.15533 10.1483C6.20475 10.1267 6.25413 10.105 6.30306 10.0823C6.32631 10.0715 6.34921 10.0601 6.37235 10.0491C6.41783 10.0274 6.4633 10.0057 6.50831 9.98307C6.53375 9.97029 6.55883 9.95693 6.5841 9.94387C6.62615 9.92213 6.66818 9.90037 6.70981 9.87782C6.73695 9.86311 6.76375 9.84786 6.79066 9.83283C6.82983 9.81095 6.86898 9.78906 6.90776 9.76646C6.93586 9.75009 6.96363 9.73322 6.99148 9.71648C7.02861 9.69418 7.0657 9.67182 7.10245 9.64886C7.40168 9.46179 7.68581 9.25282 7.95443 9.02574C8.68635 10.4042 9.66908 11.6174 10.8481 12.6059C11.3398 11.9757 11.8983 11.4148 12.5135 10.9313C11.2437 9.9179 10.2398 8.58889 9.60328 7.05072C9.87763 6.57404 10.1019 6.06351 10.2684 5.52609L10.8443 3.66731L11.4202 5.52609C11.9621 7.27497 13.1128 8.74106 14.6245 9.67312C14.9228 9.54372 15.2288 9.42869 15.5419 9.32886L18.0705 8.52104L16.9395 8.16049C15.3693 7.65991 14.1371 6.4101 13.6436 4.81727L12.5079 1.15189L12.4849 1.0973C12.2032 0.43073 11.5593 0 10.8443 0C10.1293 0 9.48538 0.430713 9.2037 1.0973L9.18065 1.15189L8.04495 4.81727C7.55146 6.4101 6.31933 7.65989 4.74908 8.16049L1.13555 9.31246L1.08173 9.33584C0.424583 9.62157 0 10.2748 0 11C0 11.3853 0.119867 11.7503 0.330767 12.0506L3.61733 11.0006L3.61537 11L5.39592 10.4324Z" fill="url(#paint0_linear_5019_24200)" />
  <path d="M18.0713 10.9995L18.0732 11.0001L16.5827 11.4753L16.2927 11.5677L16.2866 11.5697L16.2408 11.5843C16.2402 11.5845 16.2396 11.5847 16.2391 11.5849C16.2373 11.5855 16.2355 11.5861 16.2338 11.5866C16.172 11.6064 16.1107 11.6271 16.0497 11.6485C16.0358 11.6533 16.022 11.6582 16.0082 11.6631C15.9604 11.6801 15.9134 11.6986 15.8662 11.7166C15.8411 11.7261 15.8159 11.7352 15.791 11.7449C15.6746 11.7906 15.56 11.8396 15.4466 11.8909C15.4176 11.9041 15.3887 11.9175 15.3599 11.931C15.2471 11.9839 15.1355 12.039 15.026 12.0973C15.0038 12.1091 14.9821 12.1217 14.96 12.1337C14.8586 12.1891 14.7586 12.2466 14.6601 12.3066C14.642 12.3176 14.6236 12.3281 14.6056 12.3392C14.4998 12.4049 14.3963 12.4739 14.2941 12.5448C14.2681 12.5629 14.242 12.5809 14.2162 12.5993C14.1168 12.6702 14.0191 12.7433 13.9234 12.8189C13.9001 12.8373 13.8773 12.8562 13.8542 12.8749C13.7614 12.9501 13.6699 13.027 13.5809 13.1066C13.568 13.1181 13.5551 13.1296 13.5423 13.1412C13.453 13.2222 13.3661 13.3059 13.2808 13.3911C13.2591 13.4128 13.2373 13.4342 13.2159 13.4561C13.1311 13.5429 13.0486 13.6319 12.9681 13.7228C12.9466 13.7471 12.9254 13.7717 12.9042 13.7963C12.8254 13.8877 12.748 13.9804 12.6736 14.0757C12.6707 14.0793 12.6679 14.083 12.6651 14.0866C12.6602 14.0928 12.6554 14.099 12.6506 14.1052C12.6485 14.1079 12.6465 14.1104 12.6445 14.1131C12.5675 14.2129 12.4937 14.3154 12.4217 14.4192C12.3969 14.4551 12.3731 14.4917 12.3488 14.5281C12.2973 14.6052 12.2472 14.6833 12.1985 14.7625C12.1749 14.8008 12.1512 14.8391 12.1283 14.8779C12.069 14.9784 12.0117 15.0803 11.9569 15.1838C11.9492 15.1984 11.9408 15.2124 11.9332 15.227C11.872 15.3445 11.8148 15.4643 11.7597 15.5854C11.743 15.6222 11.7272 15.6594 11.711 15.6965C11.6711 15.788 11.633 15.8805 11.5967 15.974C11.5821 16.0116 11.5672 16.049 11.5531 16.0869C11.5059 16.2145 11.4608 16.3432 11.4203 16.474L10.8444 18.3328L10.2685 16.474C9.72647 14.7247 8.57532 13.2584 7.0631 12.3263C6.76368 12.4567 6.45788 12.5721 6.14673 12.6712L3.61816 13.4791L4.74916 13.8396C6.31943 14.3402 7.55155 15.59 8.04503 17.1828L9.18073 20.8482L9.20378 20.9028C9.48547 21.5694 10.1294 22.0001 10.8444 22.0001C11.5594 22.0001 12.2033 21.5694 12.485 20.9028L12.508 20.8482L12.5256 20.7916L13.6437 17.1828C14.1372 15.59 15.3693 14.3402 16.9396 13.8396L20.4973 12.7055L20.5531 12.6876L20.607 12.6643C21.2641 12.3785 21.6887 11.7253 21.6887 11.0001C21.6887 10.6148 21.5688 10.2498 21.3579 9.94946L18.0713 10.9995Z" fill="url(#paint1_linear_5019_24200)" />
  <path d="M5.39592 10.4324L5.4472 10.416C5.52075 10.3926 5.59388 10.368 5.6666 10.3422C5.676 10.3389 5.68523 10.3352 5.6946 10.3318C5.75733 10.3093 5.81988 10.2862 5.88195 10.262C5.89878 10.2555 5.91533 10.2484 5.9321 10.2417C5.98636 10.22 6.04053 10.1982 6.09425 10.1753C6.11475 10.1666 6.13493 10.1572 6.15533 10.1483C6.20475 10.1267 6.25413 10.105 6.30306 10.0823C6.32631 10.0715 6.34921 10.0601 6.37235 10.0491C6.41783 10.0274 6.4633 10.0057 6.50831 9.98307C6.53375 9.97029 6.55883 9.95693 6.5841 9.94387C6.62615 9.92213 6.66818 9.90037 6.70981 9.87782C6.73695 9.86311 6.76375 9.84786 6.79066 9.83283C6.82983 9.81095 6.86898 9.78906 6.90776 9.76646C6.93586 9.75009 6.96363 9.73322 6.99148 9.71648C7.02861 9.69418 7.0657 9.67182 7.10245 9.64886C7.40168 9.46179 7.68581 9.25282 7.95443 9.02574C8.68635 10.4042 9.66908 11.6174 10.8481 12.6059C11.3398 11.9757 11.8983 11.4148 12.5135 10.9313C11.2437 9.9179 10.2398 8.58889 9.60328 7.05072C9.87763 6.57404 10.1019 6.06351 10.2684 5.52609L10.8443 3.66731L11.4202 5.52609C11.9621 7.27497 13.1128 8.74106 14.6245 9.67312C14.9228 9.54372 15.2288 9.42869 15.5419 9.32886L18.0705 8.52104L16.9395 8.16049C15.3693 7.65991 14.1371 6.4101 13.6436 4.81727L12.5079 1.15189L12.4849 1.0973C12.2032 0.43073 11.5593 0 10.8443 0C10.1293 0 9.48538 0.430713 9.2037 1.0973L9.18065 1.15189L8.04495 4.81727C7.55146 6.4101 6.31933 7.65989 4.74908 8.16049L1.13555 9.31246L1.08173 9.33584C0.424583 9.62157 0 10.2748 0 11C0 11.3853 0.119867 11.7503 0.330767 12.0506L3.61733 11.0006L3.61537 11L5.39592 10.4324Z" fill="url(#paint2_linear_5019_24200)" />
  <path d="M18.0713 10.9995L18.0732 11.0001L16.5827 11.4753L16.2927 11.5677L16.2866 11.5697L16.2408 11.5843C16.2402 11.5845 16.2396 11.5847 16.2391 11.5849C16.2373 11.5855 16.2355 11.5861 16.2338 11.5866C16.172 11.6064 16.1107 11.6271 16.0497 11.6485C16.0358 11.6533 16.022 11.6582 16.0082 11.6631C15.9604 11.6801 15.9134 11.6986 15.8662 11.7166C15.8411 11.7261 15.8159 11.7352 15.791 11.7449C15.6746 11.7906 15.56 11.8396 15.4466 11.8909C15.4176 11.9041 15.3887 11.9175 15.3599 11.931C15.2471 11.9839 15.1355 12.039 15.026 12.0973C15.0038 12.1091 14.9821 12.1217 14.96 12.1337C14.8586 12.1891 14.7586 12.2466 14.6601 12.3066C14.642 12.3176 14.6236 12.3281 14.6056 12.3392C14.4998 12.4049 14.3963 12.4739 14.2941 12.5448C14.2681 12.5629 14.242 12.5809 14.2162 12.5993C14.1168 12.6702 14.0191 12.7433 13.9234 12.8189C13.9001 12.8373 13.8773 12.8562 13.8542 12.8749C13.7614 12.9501 13.6699 13.027 13.5809 13.1066C13.568 13.1181 13.5551 13.1296 13.5423 13.1412C13.453 13.2222 13.3661 13.3059 13.2808 13.3911C13.2591 13.4128 13.2373 13.4342 13.2159 13.4561C13.1311 13.5429 13.0486 13.6319 12.9681 13.7228C12.9466 13.7471 12.9254 13.7717 12.9042 13.7963C12.8254 13.8877 12.748 13.9804 12.6736 14.0757C12.6707 14.0793 12.6679 14.083 12.6651 14.0866C12.6602 14.0928 12.6554 14.099 12.6506 14.1052C12.6485 14.1079 12.6465 14.1104 12.6445 14.1131C12.5675 14.2129 12.4937 14.3154 12.4217 14.4192C12.3969 14.4551 12.3731 14.4917 12.3488 14.5281C12.2973 14.6052 12.2472 14.6833 12.1985 14.7625C12.1749 14.8008 12.1512 14.8391 12.1283 14.8779C12.069 14.9784 12.0117 15.0803 11.9569 15.1838C11.9492 15.1984 11.9408 15.2124 11.9332 15.227C11.872 15.3445 11.8148 15.4643 11.7597 15.5854C11.743 15.6222 11.7272 15.6594 11.711 15.6965C11.6711 15.788 11.633 15.8805 11.5967 15.974C11.5821 16.0116 11.5672 16.049 11.5531 16.0869C11.5059 16.2145 11.4608 16.3432 11.4203 16.474L10.8444 18.3328L10.2685 16.474C9.72647 14.7247 8.57532 13.2584 7.0631 12.3263C6.76368 12.4567 6.45788 12.5721 6.14673 12.6712L3.61816 13.4791L4.74916 13.8396C6.31943 14.3402 7.55155 15.59 8.04503 17.1828L9.18073 20.8482L9.20378 20.9028C9.48547 21.5694 10.1294 22.0001 10.8444 22.0001C11.5594 22.0001 12.2033 21.5694 12.485 20.9028L12.508 20.8482L12.5256 20.7916L13.6437 17.1828C14.1372 15.59 15.3693 14.3402 16.9396 13.8396L20.4973 12.7055L20.5531 12.6876L20.607 12.6643C21.2641 12.3785 21.6887 11.7253 21.6887 11.0001C21.6887 10.6148 21.5688 10.2498 21.3579 9.94946L18.0713 10.9995Z" fill="url(#paint3_linear_5019_24200)" />
  <path d="M5.39592 10.4324L5.4472 10.416C5.52075 10.3926 5.59388 10.368 5.6666 10.3422C5.676 10.3389 5.68523 10.3352 5.6946 10.3318C5.75733 10.3093 5.81988 10.2862 5.88195 10.262C5.89878 10.2555 5.91533 10.2484 5.9321 10.2417C5.98636 10.22 6.04053 10.1982 6.09425 10.1753C6.11475 10.1666 6.13493 10.1572 6.15533 10.1483C6.20475 10.1267 6.25413 10.105 6.30306 10.0823C6.32631 10.0715 6.34921 10.0601 6.37235 10.0491C6.41783 10.0274 6.4633 10.0057 6.50831 9.98307C6.53375 9.97029 6.55883 9.95693 6.5841 9.94387C6.62615 9.92213 6.66818 9.90037 6.70981 9.87782C6.73695 9.86311 6.76375 9.84786 6.79066 9.83283C6.82983 9.81095 6.86898 9.78906 6.90776 9.76646C6.93586 9.75009 6.96363 9.73322 6.99148 9.71648C7.02861 9.69418 7.0657 9.67182 7.10245 9.64886C7.40168 9.46179 7.68581 9.25282 7.95443 9.02574C8.68635 10.4042 9.66908 11.6174 10.8481 12.6059C11.3398 11.9757 11.8983 11.4148 12.5135 10.9313C11.2437 9.9179 10.2398 8.58889 9.60328 7.05072C9.87763 6.57404 10.1019 6.06351 10.2684 5.52609L10.8443 3.66731L11.4202 5.52609C11.9621 7.27497 13.1128 8.74106 14.6245 9.67312C14.9228 9.54372 15.2288 9.42869 15.5419 9.32886L18.0705 8.52104L16.9395 8.16049C15.3693 7.65991 14.1371 6.4101 13.6436 4.81727L12.5079 1.15189L12.4849 1.0973C12.2032 0.43073 11.5593 0 10.8443 0C10.1293 0 9.48538 0.430713 9.2037 1.0973L9.18065 1.15189L8.04495 4.81727C7.55146 6.4101 6.31933 7.65989 4.74908 8.16049L1.13555 9.31246L1.08173 9.33584C0.424583 9.62157 0 10.2748 0 11C0 11.3853 0.119867 11.7503 0.330767 12.0506L3.61733 11.0006L3.61537 11L5.39592 10.4324Z" fill="url(#paint4_linear_5019_24200)" />
  <path d="M18.0713 10.9995L18.0732 11.0001L16.5827 11.4753L16.2927 11.5677L16.2866 11.5697L16.2408 11.5843L16.2391 11.5849L16.2338 11.5866C16.172 11.6064 16.1107 11.6271 16.0497 11.6485C16.0358 11.6533 16.022 11.6582 16.0082 11.6631C15.9604 11.6801 15.9134 11.6986 15.8662 11.7166C15.8411 11.7261 15.8159 11.7352 15.791 11.7449C15.6746 11.7906 15.56 11.8396 15.4466 11.8909C15.4176 11.9041 15.3887 11.9175 15.3599 11.931C15.2471 11.9839 15.1355 12.039 15.026 12.0973C15.0038 12.1091 14.9821 12.1217 14.96 12.1337C14.8586 12.1891 14.7586 12.2466 14.6601 12.3066C14.642 12.3176 14.6236 12.3281 14.6056 12.3392C14.4998 12.4049 14.3963 12.4739 14.2941 12.5448C14.2681 12.5629 14.242 12.5809 14.2162 12.5993C14.1168 12.6702 14.0191 12.7433 13.9234 12.8189C13.9001 12.8373 13.8773 12.8562 13.8542 12.8749C13.7614 12.9501 13.6699 13.027 13.5809 13.1066C13.568 13.1181 13.5551 13.1296 13.5423 13.1412C13.453 13.2222 13.3661 13.3059 13.2808 13.3911C13.2591 13.4128 13.2373 13.4342 13.2159 13.4561C13.1311 13.5429 13.0486 13.6319 12.9681 13.7228C12.9466 13.7471 12.9254 13.7717 12.9042 13.7963C12.8254 13.8877 12.748 13.9804 12.6736 14.0757C12.6707 14.0793 12.6679 14.083 12.6651 14.0866C12.6602 14.0928 12.6554 14.099 12.6506 14.1052C12.6485 14.1079 12.6465 14.1104 12.6445 14.1131C12.5675 14.2129 12.4937 14.3154 12.4217 14.4192C12.3969 14.4551 12.3731 14.4917 12.3488 14.5281C12.2973 14.6052 12.2472 14.6833 12.1985 14.7625C12.1749 14.8008 12.1512 14.8391 12.1283 14.8779C12.069 14.9784 12.0117 15.0803 11.9569 15.1838C11.9492 15.1984 11.9408 15.2124 11.9332 15.227C11.872 15.3445 11.8148 15.4643 11.7597 15.5854C11.743 15.6222 11.7272 15.6594 11.711 15.6965C11.6711 15.788 11.633 15.8805 11.5967 15.974C11.5821 16.0116 11.5672 16.049 11.5531 16.0869C11.5059 16.2145 11.4608 16.3432 11.4203 16.474L10.8444 18.3328L10.2685 16.474C9.72647 14.7247 8.57532 13.2584 7.0631 12.3263C6.76368 12.4567 6.45788 12.5721 6.14673 12.6712L3.61816 13.4791L4.74916 13.8396C6.31943 14.3402 7.55155 15.59 8.04503 17.1828L9.18073 20.8482L9.20378 20.9028C9.48547 21.5694 10.1294 22.0001 10.8444 22.0001C11.5594 22.0001 12.2033 21.5694 12.485 20.9028L12.508 20.8482L12.5256 20.7916L13.6437 17.1828C14.1372 15.59 15.3693 14.3402 16.9396 13.8396L20.4973 12.7055L20.5531 12.6876L20.607 12.6643C21.2641 12.3785 21.6887 11.7253 21.6887 11.0001C21.6887 10.6148 21.5688 10.2498 21.3579 9.94946L18.0713 10.9995Z" fill="url(#paint5_linear_5019_24200)" />
  <defs>
    <linearGradient id="paint0_linear_5019_24200" x1="12.1687" y1="32.8654" x2="89.5163" y2="-11.1591" gradientUnits="userSpaceOnUse">
      <stop stop-color="#FDAF00" />
      <stop offset="0.5307" stop-color="#FD7100" />
      <stop offset="1" />
    </linearGradient>
    <linearGradient id="paint1_linear_5019_24200" x1="12.1687" y1="32.8655" x2="89.5163" y2="-11.1591" gradientUnits="userSpaceOnUse">
      <stop stop-color="#FDAF00" />
      <stop offset="0.5307" stop-color="#FD7100" />
      <stop offset="1" />
    </linearGradient>
    <linearGradient id="paint2_linear_5019_24200" x1="12.1687" y1="32.8654" x2="89.5163" y2="-11.1591" gradientUnits="userSpaceOnUse">
      <stop stop-color="#FDAF00" />
      <stop offset="0.5307" stop-color="#FD7100" />
      <stop offset="1" />
    </linearGradient>
    <linearGradient id="paint3_linear_5019_24200" x1="12.1687" y1="32.8655" x2="89.5163" y2="-11.1591" gradientUnits="userSpaceOnUse">
      <stop stop-color="#FDAF00" />
      <stop offset="0.5307" stop-color="#FD7100" />
      <stop offset="1" />
    </linearGradient>
    <linearGradient id="paint4_linear_5019_24200" x1="12.1687" y1="32.8654" x2="89.5163" y2="-11.1591" gradientUnits="userSpaceOnUse">
      <stop stop-color="#FDAF00" />
      <stop offset="0.5307" stop-color="#FD7100" />
      <stop offset="1" />
    </linearGradient>
    <linearGradient id="paint5_linear_5019_24200" x1="12.1687" y1="32.8655" x2="89.5163" y2="-11.1591" gradientUnits="userSpaceOnUse">
      <stop stop-color="#FDAF00" />
      <stop offset="0.5307" stop-color="#FD7100" />
      <stop offset="1" />
    </linearGradient>
  </defs>
</svg>